<svg xmlns="http://www.w3.org/2000/svg" xmlns:xlink="http://www.w3.org/1999/xlink" viewBox="0 0 753.14 333.3"><defs><style>.cls-1{fill:none;}.cls-2{clip-path:url(#clip-path);}.cls-3{fill:#fff;}</style><clipPath id="clip-path"><polygon class="cls-1" points="787.64 333.3 292.46 333.3 273.96 257 252.7 257 252.7 127.05 252.7 127.05 252.7 112.49 252.7 104.99 285.74 63.03 285.74 0 804.64 0 787.64 333.3"/></clipPath></defs><title>TSS1</title><g id="Capa_2" data-name="Capa 2"><g id="Capa_1-2" data-name="Capa 1"><g class="cls-2"><path class="cls-3" d="M546.66,86.91c-2.72-1.63-3.82.48-5.7,1.12v25.68c3.43.4,5.82-1.81,8.75-2.65,0-6.7.1-13.17-.06-19.63C549.6,89.54,548.67,88.11,546.66,86.91Z"/><path class="cls-3" d="M530.85,174.54c-.75-1.54-2.3-1.22-3.71-1.42-1.94-.29-3.74-.08-6.61,1.6v42.42c3.56,2.16,6.94,1,12.08-4v-16c0-5.74-.14-11.48.07-17.21C532.76,177.79,531.68,176.25,530.85,174.54Z"/><path class="cls-3" d="M479.29,209.52v-6.81c0-7.54,0-15.09,0-22.63,0-4.58-1.1-5.82-5.79-7.16-1.42-.41-4.27.47-6.42,2v40C472.47,215.25,476,212.69,479.29,209.52Z"/><path class="cls-3" d="M511.55,113.31v-6.22c0-5-.08-10.07.05-15.1,0-1.57-.72-2.68-1.32-3.91s-1.67-.86-2.68-1a5.8,5.8,0,0,0-4.78,1.27V116.2C505.4,117.76,507.84,116.91,511.55,113.31Z"/><path class="cls-3" d="M420.8,172.25c-3-.95-4.71,1-6.95,2.36v35.22c4.61,1.67,7.49-3.76,12-2v-30C424.75,175.17,423.52,173.12,420.8,172.25Z"/><path class="cls-3" d="M753.14,27H251.64l-67.5,276.5h569L694.14,168ZM285.64,39.28l436,3.5-436,3.5ZM641.27,206.34c4.72-2,9.34-4.14,13.67-6.08l4.68,5c3.14,7.64,1.52,16.17,1.89,24.6.19,4.28,0,8.58,0,13.3-8.07,6.13-18.21,8.09-27.77,12.29-5.6-4.49-5.51-13-11.65-17.57,3.51-4,8.17-5.45,13.27-7.43L643.14,247h3l3.2-3.22c-.83-10.89,1.17-22.06-1.43-33.35-4.39-1.28-8.38.62-11.93,2.67a13.18,13.18,0,0,1-8.4,1.82,20.07,20.07,0,0,0-1.32-2.52c-1.21-1.75-2.87-6.1-2.87-8,0-10.23,0-20.45,0-30.49,7.56-5.25,16.21-7.8,24.22-11.68,1-.48,2.39-.07,3.23-.07,4.1,5,5.32,11.6,10.77,15.35L648.53,184a12.84,12.84,0,0,1-4.34-6.92c-.91-3-2-6.63-6.46-6.39a3.49,3.49,0,0,0-.51.4.93.93,0,0,0-.26.5c0,11,0,22.07,0,32.84C638.09,206.31,639.66,207,641.27,206.34Zm-29.62-.16c-.79,3.82-3.53,4.52-6.11,4.79a90.63,90.63,0,0,1-9.76.09c-.58,1-1.47,1.81-1.49,2.65-.13,5.73-.25,11.47,0,17.19.11,2.43,1.07,4.84,1.79,7.22,1.33,4.43,5.38,5.21,9,6,2.53.57,5.3,0,8,.17,1.08.07,2.11.79,3.89,1.52-2,1.28-3.19,2.43-4.65,3-4.41,1.72-8.92,3.18-13.35,4.84a4.18,4.18,0,0,1-3.82-.37,35.76,35.76,0,0,1-11.45-9.27c-1.46-1.74-1.86-4.11-1.84-6.61.12-21.7.07-43.4.07-65.39,2.6-1.3,5.18-3.31,8.05-3.9,5.85-1.21,11-4.24,16.66-5.83,3-.82,3.74-.47,4.82,2.38,1.42,3.73,1.65,7.78,3.48,11.47.78,1.56.87,3.85,2.07,5.23,1,1.14,2.85,1.53,5,2.59-5.52,3-10.43,6-15.94,7.71-2.8-4.79-3.42-10-5.62-14.66-1.78-3.79-1.43-4-5.93-4.12v33.26ZM570.52,238l5.07,3.92c-1.11,3.35-4.72,4-7.25,4.83-3.17,1-5.73,3.49-8.84,3.77s-5.16,3.87-9,2.15c.63-1,.94-2.09,1.63-2.53,3.52-2.27,5-5.2,5-9.56-.19-21.06-.09-42.12-.09-63.21l-5.53-3.94c.81-.91,1.2-1.71,1.83-2,5.37-2.33,10.78-4.59,16.2-6.82,2.21-.92,4.48-1.71,7.48-2.84a11.41,11.41,0,0,1-.86,2.71,15.8,15.8,0,0,1-2.14,2.19,10.67,10.67,0,0,0-3.51,8.4C570.59,195.92,570.52,216.78,570.52,238ZM549.71,115.68h-8.89v7.69c0,3.4,0,6.8,0,10.2,0,2.65.75,4.75,3.55,5.34v2.19c-5.88,1.87-11.13,5.66-18.42,6.72.87-1.19,1.1-1.79,1.53-2a6.54,6.54,0,0,0,3.58-6.25c0-17.31,0-34.61,0-52.3,1.19-.59,2.55-1.22,3.88-1.92,5.13-2.66,10.84-3.8,16.09-6.15,1.17-.52,3.93.8,4.84,2.1a20.4,20.4,0,0,0,1.6,2.43,7.19,7.19,0,0,1,2.06,5.38c-.07,7.53,0,15.06,0,23.05h4.9a9.32,9.32,0,0,1-1.4,1.62c-1,.66-2.17,1.21-3.35,1.84v20.11l4.45,4.38-9.45,5.45c-3.63-1.33-5.09-4-5-8C549.85,130.28,549.71,123.05,549.71,115.68Zm-3.57,97.83-25.79,10.23v17.93l4.82,3.77v2.24c-6.64,2.91-13.19,5.87-19.82,8.63-1.34.56-3,.38-5.19.62.61-1.33.74-2.34,1.2-2.52,4-1.62,5.45-4.68,5.44-8.8,0-23.53,0-47.06,0-70.92l-5-5.46,11.67-7c2.56,1.42,5.07,2.73,6.18,5.82a2.51,2.51,0,0,0,4,1.06c3.62-3.4,8.6-4.19,12.9-7.46,3.15,3.62,6.9,6,8.44,10.46a12.88,12.88,0,0,1,1.19,4.43C546.1,188.8,546.14,201.05,546.14,213.51Zm-74.25,32v2.16c-6.57,2.87-13.14,5.8-19.78,8.56-1.35.56-3,.45-5.62.81,1.12-1.49,1.45-2.32,2.05-2.66a9.15,9.15,0,0,0,4.94-8.68q-.06-33.77,0-67.55c0-3.77-.85-7-6.43-8.29l13.19-7.62c2.29,1.51,4.91,2.61,6,5.75.71,1.95,2.71,2.07,4.49.76A46.52,46.52,0,0,1,483.85,162a74.15,74.15,0,0,1,5.19,5.69c1.94,2.61,3.81,5.32,3.79,8.86-.05,11,0,22.07,0,33.17l-13.64,6c4.3,11.28,6.72,23.72,19.58,29.31,0,1.11,1.09,2.3-1,3.29-3.77,1.79-7.27,4.14-10.7,6.15-3.45-1-5.17-3.27-6.59-6.19-3.89-8-7.65-16.1-9.78-24.82-.22-.89-2.11-2.93-3.38-3.68v22.08Zm-32.32-7.17c.06,2.65.77,5.41,4.15,6.22.68.16,1.19,1.06,1.92,1.75-2.09,2.44-5.17,3-7.8,4.39-4.25,2.25-4.18,2.39-7.52,2.39a11.55,11.55,0,0,1-4.44-9.89c.26-10,.08-20.05.08-30.37H415c-.4.7-1.29,1.53-1.3,2.37-.11,7.77-.22,15.56,0,23.32.09,2.94,1.36,5.65,4.79,6.52v2.44c-.23.21-.47.58-.79.69-7.81,2.75-14.93,7.4-24.3,9.13l6.82-8.29V173.21c9.42-5.18,19.68-8,30-11.45,1.78,1.9,3.35,3.79,5.15,5.43a12.7,12.7,0,0,1,4.11,10c0,9.83,0,19.65,0,29.47a7.21,7.21,0,0,0,.38,1.19h6.42a13,13,0,0,1-2,2.22c-1.45.92-3,1.68-4.81,2.68C439.49,221.28,439.36,229.82,439.57,238.35Zm-64.42-26.57c-3.15-3.2-7-1-10.36-1.79l-1.94,1.93c0,8.3,0,16.68,0,25.07,0,3.82.92,6.94,4.88,8.09V248c-7.13,2.94-14.28,5.93-21.48,8.81-.84.34-1.92.05-3.54-1a19.75,19.75,0,0,0,2.45-1.53c3.08-2.58,4.28-5.79,4.25-9.93-.16-23.34-.07-46.68-.07-70.56-1.48-1.21-3.21-2.65-5-4.1,3.41-3.77,8.28-5.06,12-7.47l6.47,6.47v39.19l10.82-1.73,1.51-1.52c0-6.69-.06-13.44,0-20.19s.26-5.79-5.53-11.32c4-3.29,8.66-3.93,12.66-5.94s7.94-3.42,12.81-5.48a15.33,15.33,0,0,1-1.11,3.12,15.25,15.25,0,0,1-2.14,2.19,10.17,10.17,0,0,0-3.22,7.9c.11,9.82,0,19.65,0,29.89l6.56,2.43-6.56,3.66c0,8.82,0,18,0,27.18a8,8,0,0,0,2.36,5.79c1,1,1.92,1.95,3.45,3.5-5.51,1.62-8.54,7.11-15.09,5.61-3.13-2.14-4.39-5.48-4.3-9.83C375.3,232.63,375.15,222.21,375.15,211.78Zm-34.63,19.27c.24,3.46,0,7,0,10.57-3.11,3.54-7.06,5.43-11.6,7.19-4.36,1.69-8.73,3.64-13.15,5.33-1.4.53-2.86.87-4.94,1.5-1.76-3.06-4.23-6.39-5.63-10.11-1.16-3.09-3.09-5.32-5.6-7.87,4.76-1.75,8.06-5.67,13-6.71,4.68,4.91,5,12.4,10.82,16.75l3.58-5c0-7.48-.14-16.49.09-25.5.06-2.55-1-4.5-1.7-6.65-4.69-1.08-8.19,2-12.18,3.18-2,.62-4,1.32-5.93,2-4.41-3.56-6-8.08-6.06-13.06-.17-9-.05-18-.05-27.44,2.11-1.68,4.15-4.47,6.75-5.15,7.23-1.87,13.13-7.24,20.77-7.74,4.69,4.16,3.73,12.25,11.87,14.53l-13.82,7.92c-4.54-3.29-4.31-9.25-8.09-13.7H315v34c1,1.37,2.17,2.33,4.66,1.12,4.42-2.15,9.08-3.8,13.77-5.71,3.52,2.77,6.46,5.83,5.87,10.86C341.93,217.73,340.07,224.46,340.52,231.05Zm-3.2-83.78c1.77-1.64,3.5-2.53,4-3.89a19.41,19.41,0,0,0,1.07-7.13c-.11-15-.09-29.89,0-44.84,0-2.86-.6-5.2-3.49-6.63l-2.07,2.06h-9.7c-1.44.82-1.41,2.11-1.41,3.47,0,9.92,0,19.84,0,29.76v17.08l3.51,2.36c-1.66,2.9-4.89,2.9-7.34,4.14-3.26,1.65-6.74,2.86-10.17,4.29l-.89-.9c0-.17,0-.44.15-.57,1.34-1.38,2.71-2.73,3.79-3.81,1.85-4.51,1.12-8.91,1.14-13.24.08-13.17,0-26.34,0-39.38l2.38-2.75a16.68,16.68,0,0,0-7.05,0,9,9,0,0,0-5.82,3.42c-2.85-2-3.32-5.42-5.84-7.34,2-2.58,4.06-3.8,7.11-3.73,6.65.16,13.32,0,20,.06,3,0,6-.21,8.3-2.55.31-.31,1.12-.12,1.68-.15l3.85,5.74c2.36-1.54,5-2.39,7.12-4.13,1,1,1.68,1.71,2.41,2.4a6.87,6.87,0,0,1,2.08,5.37c-.06,8.41,0,16.83,0,25.68,3.07-.87,6.16-.63,8.89-2.3V96.5c0-5.28,0-5.28-3.57-9.19.11-2.1,2.14-2.44,3.34-2.77,4.64-1.26,8.71-3.86,13.28-5.28l.95.95c0,.18,0,.51-.15.57-1.84.86-2.56,2.81-4.05,4v25.27l3.69,1.55c-.61,1.68-2.31,1.71-3.71,2.4,0,6.92,0,13.85,0,20.78a5.78,5.78,0,0,0,.91,3.13,10.62,10.62,0,0,0,2.77,2,19.29,19.29,0,0,1-9.81,5.05l-3.64-3.86V115c-2.33-2.37-5.15-.76-7.54-1.35-.5.51-.92.92-1.37,1.37v21.29l4,4.34c-3.32,1.5-6.25,2.89-9.23,4.16-1.64.7-3.57.9-5,1.88S339.38,147.53,337.32,147.27ZM378,86.48a222,222,0,0,1,21.09-7.69c.73,2.71,1.42,5.09,2,7.49.87,3.57,1.75,7.1,5.65,8.7.22.09.36.4.57.64l-10.78,5.18c-3.77-4-3.05-9.44-5.58-13.62h-3.05v23.91c3.08,0,6.28,0,9.48,0a15.61,15.61,0,0,1,3.21.85c-3.58,4-7.86,2.15-12,2.84a8.79,8.79,0,0,0-.77,2.51c-.09,4.29-.05,8.58,0,12.87a8.15,8.15,0,0,0,8.18,8.43c2.2.09,4.41,0,6.92,0v2.27c-3.91,1.54-7.84,3.12-11.81,4.61a2.71,2.71,0,0,1-2.05.06c-3.34-1.91-6.83-3.6-9-7.09a10.71,10.71,0,0,1-2-5.83C378,117.29,378,101.92,378,86.48Zm52.93,60.33c-.44-.8-.87-1.61-1.32-2.41a42.35,42.35,0,0,1-2.6-4.7c-1-2.4-2-4.67-4.94-6l9.4-4.89c1.86,1,2.77,2.83,3.54,4.86a24.39,24.39,0,0,0,2.75,5.5c1.34,1.87,2,1.74,4.32,0,0-7.47,0-15,0-22.54a9.19,9.19,0,0,0-.67-2.51c-2.66-.74-4.52.07-6.48,1-2.34,1.17-4.68,2.56-7.53,2.16-.7-.7-1.74-1.31-2.1-2.19a34.39,34.39,0,0,1-1-4.49c-1.79-7.22-.34-14.56-1.06-22.17,5.88-4.72,12.95-6.94,19.94-9.6,3.16,3.48,3.94,8.39,8.18,11.12l-9.77,5.54c-.8-1.54-1.55-2.83-2.15-4.19s-1.07-3.13-1.83-4.57c-1-1.84-1.9-1.83-4.32-.18v23.32c1.16,1.61,2.69,1.59,4.24.88,3-1.35,5.93-2.81,8.73-4.15,1.85.58,3.22,1.46,3.75,3.14.84,2.64,2,5.15,1.91,8.11-.19,6.5-.06,13-.06,19.75C445.17,141.56,438.13,143.89,430.94,146.81Zm57.49.3c.87-.87,1.81-1.69,2.59-2.63a7.58,7.58,0,0,0,1.8-2.79,30.72,30.72,0,0,0,.92-6.73q.12-20.66,0-41.31a15.71,15.71,0,0,0-1-5.8c-.48-1.17-1.79-2-3-3.06l-2.09,1.6c-3.3,1.28-7.48-.3-11.3,1.58v49.58l3.24,2.06a10.1,10.1,0,0,1-4.08,2.9c-3.65,1.58-7.28,3.17-10.95,4.69a10.4,10.4,0,0,1-2.34.38c-.09-.64-.25-1.12-.16-1.17,3.52-1.9,4.31-5.3,4.37-8.77.17-9,.06-18.07.06-27.1V90.35c.75-.92,1.38-1.67,2.36-2.86a19.34,19.34,0,0,0-7.07.11,9.7,9.7,0,0,0-6.07,3.7c-1.24-3.51-4.87-5.2-4.32-9l3.39-2.3H478.1c2.76,0,5.34-.41,7.43-2.48.32-.32,1.11-.17,1.71-.25l4.07,6,7.18-4.48c1.66,1.85,3.18,3.53,5.1,5.65a1.17,1.17,0,0,0,1,0C507.35,82,511,81.1,514,79c3.62.74,4.5,4.18,6.47,6.6a4.45,4.45,0,0,1,.82,3.24c0,8.14,0,16.28,0,24.58l-8.51,3.78a6.62,6.62,0,0,0,.53,5.84c1.8,3.25,2.91,6.79,5.17,9.9s4.53,5.26,8.48,6.14c-2.22,4.11-6.9,4.19-9.93,6.73-2.42-.85-3.5-2.79-4.67-4.84-2.77-4.8-4.36-10-6.17-15.22a27.45,27.45,0,0,0-.94-3.16A16.74,16.74,0,0,0,502.9,120c-.11,2.12-.21,3.38-.23,4.63,0,3.11-.11,6.23,0,9.33.1,2.34.87,4.42,3.51,5.13V141C500.52,143.41,495,146.44,488.43,147.11Zm84.64-2.87c.68-.49,1.14-.83,1.61-1.15a7.57,7.57,0,0,0,3.15-6.12c.29-7.53.22-15.09,0-22.63-.05-1.84-1.1-3.66-1.7-5.49-1.88-5.73-3.7-11.48-5.67-17.18-1.73-5-1.8-5-6.15-7.32,2.61-1.73,5-3.53,7.64-4.95,1-.56,2.54-.27,4.16-.39,3.35,10.48,6.69,20.89,10,31.37,1.51-.46,2.44-.94,2.43-2.41,0-5.62.17-11.25-.08-16.86a8.14,8.14,0,0,0-4-6.54c2.74-3.09,5.84-4.3,8.66-5.76,1.56,1.57,2.82,2.82,4.18,4.18v27l-9.54,4v20l3.53,2.71c-.73,2-2.68,2.21-4.26,2.95-2.85,1.34-5.6,3-8.57,4C577,144.15,575.38,145.73,573.07,144.24Zm147.8,146-439.23,3.5-1-7Z"/></g><path class="cls-3" d="M240.93,0V28.32h-20.8V0H184.94V28.32h-20.8V0H129V28.32H107.77V0H73V60l33,41v21.34l46.89-2.85,19.42,24.41,70.39-31.4V101l33-41V0Zm1.77,127.05-56.24,25.09,23.68,30.65-65.21,40.54,23.75,29.33-29.56,26.75-8.93-9.85,20.23-18.32L133.55,230.4,106,247.53v18.39H84.74L69.23,333.3H279.46L264,265.92H242.7V127.05Zm-110.3,13.6H109.09l-12.3,21,22.06,3.85,13.55-24.9Zm-46,36.18L76.14,133.74,35.66,121.33l-1.28,39.53,52,16Zm94.93-9.56-30.26,13.87L164,195.81l26.6-16.54-9.27-12Zm-52,9.29L106,196.43v35.44l46.56-28.94-23.24-26.37ZM18.93,169.25l2.94-23.08L4.28,132.57,0,159.33l18.93,9.92Zm-6.1-97.53,5.88,27.76,22.22,2.58L35.13,78.4l-22.3-6.68Zm79,124.08-28.25,5.07L53.32,229l27.6-.07L91.79,195.8Z"/><path class="cls-3" d="M240.93,0V28.32h-20.8V0H184.94V28.32h-20.8V0H129V28.32H107.77V0H73V60l33,41v21.34l46.89-2.85,19.42,24.41,70.39-31.4V101l33-41V0Zm1.77,127.05-56.24,25.09,23.68,30.65-65.21,40.54,23.75,29.33-29.56,26.75-8.93-9.85,20.23-18.32L133.55,230.4,106,247.53v18.39H84.74L69.23,333.3H279.46L264,265.92H242.7V127.05Zm-110.3,13.6H109.09l-12.3,21,22.06,3.85,13.55-24.9Zm-46,36.18L76.14,133.74,35.66,121.33l-1.28,39.53,52,16Zm94.93-9.56-30.26,13.87L164,195.81l26.6-16.54-9.27-12Zm-52,9.29L106,196.43v35.44l46.56-28.94-23.24-26.37ZM18.93,169.25l2.94-23.08L4.28,132.57,0,159.33l18.93,9.92Zm-6.1-97.53,5.88,27.76,22.22,2.58L35.13,78.4l-22.3-6.68Zm79,124.08-28.25,5.07L53.32,229l27.6-.07L91.79,195.8Z"/></g></g></svg>